<svg width="143" height="34" viewBox="0 0 143 34" fill="none" xmlns="http://www.w3.org/2000/svg">
<path d="M38.4062 32.3264V0.5H51.1879C57.8255 0.5 61.7819 4.5931 61.7819 10.3686C61.7819 16.1442 57.8255 20.2343 51.1879 20.2343H44.4552V32.3264H38.4062ZM44.4552 15.187H50.9085C54.4547 15.187 55.9112 12.9131 55.9112 10.3686C55.9112 7.82419 54.4547 5.54727 50.9085 5.54727H44.4552V15.187Z" fill="#fff"/>
<path d="M61.3984 20.8684C61.3984 14.0466 66.3982 9.04688 73.3984 9.04688C80.3986 9.04688 85.3566 14.0466 85.3566 20.8684C85.3566 27.6903 80.3569 32.69 73.3984 32.69C66.4398 32.69 61.3984 27.6873 61.3984 20.8684ZM79.7208 20.8684C79.7208 16.7308 77.1734 13.8653 73.3984 13.8653C69.6233 13.8653 67.0343 16.7308 67.0343 20.8684C67.0343 25.0061 69.5817 27.8686 73.3984 27.8686C77.215 27.8686 79.7208 25.0061 79.7208 20.8684V20.8684Z" fill="#fff"/>
<path d="M104.316 2.5H109.911V9.41103H116.275V14.0957H109.911V23.78C109.911 26.0986 111.138 27.2816 113.228 27.2816H116.275V32.3348H112.592C107.589 32.3348 104.316 29.4248 104.316 24.3329V2.5Z" fill="#fff"/>
<path d="M118.137 20.8684C118.137 14.0466 123.136 9.04688 130.137 9.04688C137.137 9.04688 142.083 14.0466 142.083 20.8684C142.083 27.6903 137.083 32.69 130.125 32.69C123.166 32.69 118.137 27.6873 118.137 20.8684ZM136.459 20.8684C136.459 16.7308 133.912 13.8653 130.137 13.8653C126.362 13.8653 123.773 16.7308 123.773 20.8684C123.773 25.0061 126.32 27.8686 130.137 27.8686C133.953 27.8686 136.459 25.0061 136.459 20.8684Z" fill="#fff"/>
<path d="M101.989 9.37109V14.6681C101.989 14.6681 98.0001 14.457 96.6922 14.6681C95.8985 14.7988 94.4212 15.426 94.4212 16.939V32.0809H88.3633V16.184C88.3633 16.184 88.3633 9.37109 94.4212 9.37109H101.989Z" fill="#fff"/>

<path fill-rule="evenodd" clip-rule="evenodd" d="M4.10798 5.23994e-05H28.4823C29.0267 -0.0026889 29.5662 0.102155 30.0699 0.308567C30.5736 0.51498 31.0315 0.818883 31.4174 1.20283C31.8033 1.58677 32.1095 2.04318 32.3184 2.54583C32.5274 3.04848 32.6349 3.58746 32.6349 4.1318V29.059C32.6349 30.1549 32.1996 31.2058 31.4247 31.9806C30.6499 32.7555 29.599 33.1908 28.5032 33.1908H4.12879C3.58634 33.1908 3.0492 33.0839 2.54808 32.8762C2.04696 32.6686 1.59168 32.3642 1.20824 31.9805C0.824813 31.5968 0.52075 31.1412 0.313434 30.64C0.106118 30.1387 -0.000388316 29.6015 1.10659e-06 29.059V4.1318C-0.000797783 3.03986 0.430992 1.99207 1.20088 1.21773C1.97077 0.443386 3.01605 0.00555504 4.10798 5.23994e-05ZM28.8628 17.5477C28.9193 17.6279 29.0382 17.5655 29.0382 17.4674C28.7974 15.5739 26.678 6.45732 8.29915 11.2519C8.27379 11.2583 8.25187 11.2742 8.23802 11.2964C8.22416 11.3186 8.21944 11.3453 8.22484 11.3708C8.33482 11.8821 8.82825 14.4474 8.77177 18.4572C8.77137 18.4735 8.77492 18.4897 8.7821 18.5043C8.78929 18.5189 8.7999 18.5316 8.81304 18.5412C8.82617 18.5508 8.84145 18.5572 8.85755 18.5596C8.87366 18.5621 8.89011 18.5606 8.90553 18.5553C10.4661 17.9787 25.5247 12.8868 28.8628 17.5477ZM4.80157 3.72132C4.7857 3.70795 4.77434 3.69003 4.76901 3.66998C4.76369 3.64993 4.76466 3.62872 4.7718 3.60924C4.77895 3.58977 4.79191 3.57296 4.80893 3.5611C4.82596 3.54925 4.84622 3.54291 4.86696 3.54297C21.6199 3.54297 25.6119 9.08962 26.3996 10.6383C26.411 10.6588 26.4148 10.6825 26.4106 10.7056C26.4063 10.7286 26.3942 10.7494 26.3763 10.7645C26.3584 10.7796 26.3359 10.788 26.3125 10.7883C26.2891 10.7886 26.2663 10.7807 26.248 10.7661C20.7549 6.41142 9.12356 9.10152 7.90484 9.39877C7.89155 9.4018 7.87778 9.40211 7.86437 9.39968C7.85095 9.39725 7.83817 9.39213 7.82678 9.38463C7.8154 9.37714 7.80565 9.36741 7.79812 9.35605C7.79059 9.34468 7.78543 9.33191 7.78297 9.3185C7.17064 6.02202 5.41984 4.25637 4.80157 3.72132ZM22.2428 27.8977C22.2659 27.9028 22.2899 27.8999 22.3111 27.8894C24.0797 26.8402 29.4302 23.404 29.231 19.5873C28.9932 15.0127 12.5286 18.1902 8.57523 20.5236C8.56084 20.5323 8.54892 20.5445 8.5406 20.559C8.53227 20.5736 8.52781 20.5901 8.52767 20.6069C8.50389 21.2073 8.24825 26.5875 5.87027 29.9018C5.85751 29.9198 5.85096 29.9414 5.85161 29.9634C5.85226 29.9854 5.86007 30.0066 5.87386 30.0237C5.88765 30.0409 5.90667 30.0531 5.92801 30.0584C5.94936 30.0638 5.97188 30.062 5.99214 30.0534C9.02407 28.6682 29.8136 19.3406 22.1833 27.7319C22.1687 27.7505 22.1609 27.7734 22.1611 27.797C22.1613 27.8205 22.1695 27.8433 22.1843 27.8617C22.1992 27.88 22.2198 27.8927 22.2428 27.8977Z" fill="#fff"/>
</svg>